PathFileType	4	(X/Y/Z)	OpenSim_Sub08_CSBaseline_Accel.trc
DataRate	CameraRate	NumFrames	NumMarkers	Units	OrigDataRate	OrigDataStartFrame	OrigNumFrames
100	100	17	8	m	100	4779	5461
Frame#	Time	torso_imu_offset_imu	pelvis_imu_offset_imu	tibia_r_imu_offset_imu	femur_r_imu_offset_imu	tibia_l_imu_offset_imu	femur_l_imu_offset_imu	toes_r_imu_offset_imu	toes_l_imu_offset_imu
				X1	Y1	Z1	X2	Y2	Z2	X3	Y3	Z3	X4	Y4	Z4	X5	Y5	Z5	X6	Y6	Z6	X7	Y7	Z7	X8		Y8	Z8	

4779	47.78000000	8.62490200	-0.00872400	6.35260100	9.11995200	0.66560600	3.46103700	9.48133900	0.47826900	-1.50398700	9.31895100	-0.84580700	-0.49488400	2.35272200	-5.17670200	3.59624900	9.11989800	4.72314800	1.58989800	5.73007100	-2.10297100	8.05617800	5.03957600	3.52011600	13.51596200
4780	47.79000000	8.64667400	-0.02146000	6.30354900	9.35629500	0.44535500	3.36882600	9.65978800	1.00525300	-1.29546900	9.42911600	-0.80925000	-0.47547700	2.20970900	-4.65176300	3.24153700	9.04868800	3.95091300	1.54909500	5.49110400	-2.01823400	8.16803400	6.60100900	3.23273900	14.23452300
4781	47.80000000	8.55574900	0.03377100	6.26361700	9.56468600	0.42663900	3.28916400	9.80685600	1.47095000	-0.91209300	9.54726500	-0.79001700	-0.37058900	2.90071800	-4.78008600	2.39954500	8.63266600	3.19249800	1.24553700	5.43266600	-1.94788600	8.20342600	6.73093300	2.19112500	14.12737800
4782	47.81000000	8.46259600	0.06149400	6.35461000	9.63450500	0.62799500	3.27689000	9.73786400	1.66906700	-0.81018700	9.62054000	-0.91006200	-0.26367400	3.92640900	-5.03039300	1.71203000	8.35400600	2.49444000	0.92259500	5.24950300	-1.86202600	8.36607200	5.95135600	-0.71939800	13.13317200
4783	47.82000000	8.43697300	0.04196700	6.47309200	9.59004200	0.90586000	3.31540800	9.72631700	1.59297000	-0.58579200	9.69728800	-1.06439100	-0.00388400	4.52705600	-5.57879200	0.87338100	8.66977900	1.82071100	0.70736600	5.16237400	-1.83701500	8.30318200	5.59104500	-4.88174100	11.95942800
4784	47.83000000	8.48272500	-0.13825600	6.57845600	9.41241500	1.25638600	3.31480400	9.75955700	1.27042200	-0.82195600	9.75238100	-1.06086300	0.28975500	4.75091100	-6.35633000	0.52820400	8.31285100	1.49282200	0.27149900	5.25061300	-1.81382200	8.31876400	5.97329100	-6.91974700	11.91189300
4785	47.84000000	8.45446800	-0.24110000	6.55205600	9.20331200	1.47631000	3.29074800	9.73356800	1.04551900	-1.01377600	9.59943200	-0.86464700	0.48553200	4.83598200	-7.53659500	0.19189100	8.32501700	1.07519700	-0.05574800	5.20064900	-1.98384800	8.24133500	7.29464400	-5.02056400	13.48353900
4786	47.85000000	8.39005500	-0.38811200	6.52018700	8.97443800	1.53090000	3.19373300	9.58940900	0.81130600	-0.97391200	9.40261800	-0.76790100	0.49969900	5.06012500	-8.53104200	-0.15449900	8.17349100	0.70226100	-0.22557300	5.19206900	-1.99552800	8.26717400	8.43216200	-2.58115000	14.85768100
4787	47.86000000	8.50008100	-0.48225400	6.46578200	8.81305800	1.34568900	3.09292900	9.41168400	0.67624100	-1.07448800	9.35478300	-0.85124100	0.32746400	5.19878400	-8.83411200	-0.52355900	8.08213600	0.26410900	-0.43127700	5.12586900	-1.94154700	8.36028800	8.57162700	-2.01856400	14.76675600
4788	47.87000000	8.45624100	-0.39978400	6.39660400	8.72154600	1.15697300	3.01945100	9.48306100	0.65874700	-0.99663100	9.24154500	-0.85894100	0.04088500	5.89608700	-7.92416400	-0.65152100	7.91027700	-0.05166700	-0.38952800	5.61652300	-1.93942100	7.99870000	7.82455800	-2.53031800	13.61221000
4789	47.88000000	8.62758100	-0.41648700	6.38247900	8.72104400	0.88850100	2.98371200	9.48395900	0.44483900	-1.07861900	9.06940600	-0.86570300	0.01640400	7.13750700	-6.26377900	-0.31691100	7.67921900	-0.07038100	-0.22225200	5.13173200	-1.76670500	8.32556300	7.33303600	-2.90220000	12.52893200
4790	47.89000000	8.73238800	-0.46429600	6.35124700	8.76343900	0.69898500	3.00135300	9.60054600	0.53980800	-0.98268600	9.24796400	-1.03031100	0.01729700	8.38850400	-4.31166400	0.55712400	7.52155000	0.25170600	0.02263000	5.18571500	-1.74018300	8.41760800	9.63867700	-2.20046300	13.25034600
4791	47.90000000	8.79344200	-0.53794200	6.41228000	8.77237700	0.72201600	3.08693000	9.90538400	0.73524700	-0.78205500	9.57026000	-1.19997000	-0.01133400	7.82150500	-2.91810000	2.68166500	7.42656000	0.79535200	0.27418000	5.12674100	-1.82452800	8.42142700	15.63902800	-0.55682800	15.44562100
4792	47.91000000	8.73316400	-0.52614600	6.47745700	8.76031500	0.94946600	3.13891100	9.96812100	1.01010700	-0.51820800	9.64327000	-1.36857900	0.00938000	7.58404200	-1.45249100	4.33237400	7.49522000	1.45047900	0.70374500	5.37263500	-1.58943700	8.23575100	18.10856900	2.64435300	16.45338300
4793	47.92000000	8.57639900	-0.55069900	6.44069100	8.85336100	1.28137500	3.25425200	9.83377600	1.27040300	-0.48390400	9.66740700	-1.59289700	0.08314200	8.74142300	0.59702800	4.54660500	6.62199400	2.45376600	1.14756200	5.00233800	-1.36994800	8.63229900	17.49354100	5.51581000	15.05179500
4794	47.93000000	8.49224300	-0.57441600	6.42791300	8.77623600	1.49939200	3.24627700	9.78019100	1.35522000	-0.43852900	9.57053100	-1.81099300	0.23902400	10.64927500	2.41601900	4.03475500	7.23721200	3.49857100	1.62858700	5.10277600	-1.53730300	8.54753700	17.00940700	6.90161000	12.88927700
4795	47.94000000	8.60308800	-0.51666000	6.36326100	8.79650500	1.47471000	3.28075400	9.74324100	0.96899800	-0.59951700	9.48396700	-2.00054700	0.36781100	12.16094000	2.71794500	3.63092200	8.01515300	5.00311000	2.16836100	5.01967500	-1.70719900	8.46736800	17.49907100	6.97816200	11.26459200
